<?xml version="1.0" encoding="UTF-8"?>
<svg xmlns="http://www.w3.org/2000/svg" xmlns:xlink="http://www.w3.org/1999/xlink" width="216pt" height="216pt" viewBox="0 0 216 216" version="1.1">
<defs>
<clipPath id="clip1">
  <path d="M 34.824219 137 L 207.03125 137 L 207.03125 140 L 34.824219 140 Z M 34.824219 137 "/>
</clipPath>
<clipPath id="clip2">
  <path d="M 34.824219 91 L 207.03125 91 L 207.03125 93 L 34.824219 93 Z M 34.824219 91 "/>
</clipPath>
<clipPath id="clip3">
  <path d="M 34.824219 44 L 207.03125 44 L 207.03125 47 L 34.824219 47 Z M 34.824219 44 "/>
</clipPath>
<clipPath id="clip4">
  <path d="M 35 8.964844 L 38 8.964844 L 38 181.171875 L 35 181.171875 Z M 35 8.964844 "/>
</clipPath>
<clipPath id="clip5">
  <path d="M 77 8.964844 L 79 8.964844 L 79 181.171875 L 77 181.171875 Z M 77 8.964844 "/>
</clipPath>
<clipPath id="clip6">
  <path d="M 118 8.964844 L 121 8.964844 L 121 181.171875 L 118 181.171875 Z M 118 8.964844 "/>
</clipPath>
<clipPath id="clip7">
  <path d="M 159 8.964844 L 162 8.964844 L 162 181.171875 L 159 181.171875 Z M 159 8.964844 "/>
</clipPath>
<clipPath id="clip8">
  <path d="M 200 8.964844 L 203 8.964844 L 203 181.171875 L 200 181.171875 Z M 200 8.964844 "/>
</clipPath>
</defs>
<g id="surface781">
<g clip-path="url(#clip1)" clip-rule="nonzero">
<path style="fill:none;stroke-width:1.745965;stroke-linecap:butt;stroke-linejoin:round;stroke:rgb(80%,80%,80%);stroke-opacity:1;stroke-miterlimit:10;" d="M 34.824219 138.617188 L 207.035156 138.617188 "/>
</g>
<g clip-path="url(#clip2)" clip-rule="nonzero">
<path style="fill:none;stroke-width:1.745965;stroke-linecap:butt;stroke-linejoin:round;stroke:rgb(80%,80%,80%);stroke-opacity:1;stroke-miterlimit:10;" d="M 34.824219 91.984375 L 207.035156 91.984375 "/>
</g>
<g clip-path="url(#clip3)" clip-rule="nonzero">
<path style="fill:none;stroke-width:1.745965;stroke-linecap:butt;stroke-linejoin:round;stroke:rgb(80%,80%,80%);stroke-opacity:1;stroke-miterlimit:10;" d="M 34.824219 45.347656 L 207.035156 45.347656 "/>
</g>
<g clip-path="url(#clip4)" clip-rule="nonzero">
<path style="fill:none;stroke-width:1.745965;stroke-linecap:butt;stroke-linejoin:round;stroke:rgb(80%,80%,80%);stroke-opacity:1;stroke-miterlimit:10;" d="M 36.792969 181.175781 L 36.792969 8.964844 "/>
</g>
<g clip-path="url(#clip5)" clip-rule="nonzero">
<path style="fill:none;stroke-width:1.745965;stroke-linecap:butt;stroke-linejoin:round;stroke:rgb(80%,80%,80%);stroke-opacity:1;stroke-miterlimit:10;" d="M 78.011719 181.175781 L 78.011719 8.964844 "/>
</g>
<g clip-path="url(#clip6)" clip-rule="nonzero">
<path style="fill:none;stroke-width:1.745965;stroke-linecap:butt;stroke-linejoin:round;stroke:rgb(80%,80%,80%);stroke-opacity:1;stroke-miterlimit:10;" d="M 119.226562 181.175781 L 119.226562 8.964844 "/>
</g>
<g clip-path="url(#clip7)" clip-rule="nonzero">
<path style="fill:none;stroke-width:1.745965;stroke-linecap:butt;stroke-linejoin:round;stroke:rgb(80%,80%,80%);stroke-opacity:1;stroke-miterlimit:10;" d="M 160.445312 181.175781 L 160.445312 8.964844 "/>
</g>
<g clip-path="url(#clip8)" clip-rule="nonzero">
<path style="fill:none;stroke-width:1.745965;stroke-linecap:butt;stroke-linejoin:round;stroke:rgb(80%,80%,80%);stroke-opacity:1;stroke-miterlimit:10;" d="M 201.664062 181.175781 L 201.664062 8.964844 "/>
</g>
<path style="fill-rule:nonzero;fill:rgb(78.431373%,0%,56.078431%);fill-opacity:1;stroke-width:0.708661;stroke-linecap:round;stroke-linejoin:round;stroke:rgb(78.431373%,0%,56.078431%);stroke-opacity:1;stroke-miterlimit:10;" d="M 80.179688 133.4375 C 80.179688 136.582031 77.632812 139.128906 74.492188 139.128906 C 71.351562 139.128906 68.804688 136.582031 68.804688 133.4375 C 68.804688 130.296875 71.351562 127.75 74.492188 127.75 C 77.632812 127.75 80.179688 130.296875 80.179688 133.4375 "/>
<path style="fill-rule:nonzero;fill:rgb(0%,0%,0%);fill-opacity:1;stroke-width:0.708661;stroke-linecap:round;stroke-linejoin:round;stroke:rgb(0%,0%,0%);stroke-opacity:1;stroke-miterlimit:10;" d="M 140.699219 145.574219 C 140.699219 148.714844 138.152344 151.261719 135.007812 151.261719 C 131.867188 151.261719 129.320312 148.714844 129.320312 145.574219 C 129.320312 142.433594 131.867188 139.882812 135.007812 139.882812 C 138.152344 139.882812 140.699219 142.433594 140.699219 145.574219 "/>
<path style="fill-rule:nonzero;fill:rgb(0%,0%,0%);fill-opacity:1;stroke-width:0.708661;stroke-linecap:round;stroke-linejoin:round;stroke:rgb(0%,0%,0%);stroke-opacity:1;stroke-miterlimit:10;" d="M 137.261719 132.125 C 137.261719 135.269531 134.714844 137.816406 131.574219 137.816406 C 128.429688 137.816406 125.882812 135.269531 125.882812 132.125 C 125.882812 128.984375 128.429688 126.4375 131.574219 126.4375 C 134.714844 126.4375 137.261719 128.984375 137.261719 132.125 "/>
<path style="fill-rule:nonzero;fill:rgb(0%,0%,0%);fill-opacity:1;stroke-width:0.708661;stroke-linecap:round;stroke-linejoin:round;stroke:rgb(0%,0%,0%);stroke-opacity:1;stroke-miterlimit:10;" d="M 55.1875 18.285156 C 55.1875 21.425781 52.640625 23.972656 49.5 23.972656 C 46.355469 23.972656 43.808594 21.425781 43.808594 18.285156 C 43.808594 15.140625 46.355469 12.59375 49.5 12.59375 C 52.640625 12.59375 55.1875 15.140625 55.1875 18.285156 "/>
<path style="fill-rule:nonzero;fill:rgb(0%,0%,0%);fill-opacity:1;stroke-width:0.708661;stroke-linecap:round;stroke-linejoin:round;stroke:rgb(0%,0%,0%);stroke-opacity:1;stroke-miterlimit:10;" d="M 48.34375 102.011719 C 48.34375 105.152344 45.796875 107.699219 42.652344 107.699219 C 39.511719 107.699219 36.964844 105.152344 36.964844 102.011719 C 36.964844 98.871094 39.511719 96.320312 42.652344 96.320312 C 45.796875 96.320312 48.34375 98.871094 48.34375 102.011719 "/>
<path style="fill-rule:nonzero;fill:rgb(78.431373%,0%,56.078431%);fill-opacity:1;stroke-width:0.708661;stroke-linecap:round;stroke-linejoin:round;stroke:rgb(78.431373%,0%,56.078431%);stroke-opacity:1;stroke-miterlimit:10;" d="M 148.460938 39.753906 C 148.460938 42.898438 145.914062 45.445312 142.769531 45.445312 C 139.628906 45.445312 137.082031 42.898438 137.082031 39.753906 C 137.082031 36.613281 139.628906 34.066406 142.769531 34.066406 C 145.914062 34.066406 148.460938 36.613281 148.460938 39.753906 "/>
<path style="fill-rule:nonzero;fill:rgb(0%,0%,0%);fill-opacity:1;stroke-width:0.708661;stroke-linecap:round;stroke-linejoin:round;stroke:rgb(0%,0%,0%);stroke-opacity:1;stroke-miterlimit:10;" d="M 195.582031 20.984375 C 195.582031 24.125 193.035156 26.671875 189.894531 26.671875 C 186.753906 26.671875 184.203125 24.125 184.203125 20.984375 C 184.203125 17.84375 186.753906 15.292969 189.894531 15.292969 C 193.035156 15.292969 195.582031 17.84375 195.582031 20.984375 "/>
<path style="fill-rule:nonzero;fill:rgb(0%,0%,0%);fill-opacity:1;stroke-width:0.708661;stroke-linecap:round;stroke-linejoin:round;stroke:rgb(0%,0%,0%);stroke-opacity:1;stroke-miterlimit:10;" d="M 141.089844 108.1875 C 141.089844 111.328125 138.542969 113.878906 135.402344 113.878906 C 132.257812 113.878906 129.710938 111.328125 129.710938 108.1875 C 129.710938 105.046875 132.257812 102.5 135.402344 102.5 C 138.542969 102.5 141.089844 105.046875 141.089844 108.1875 "/>
<path style="fill-rule:nonzero;fill:rgb(0%,0%,0%);fill-opacity:1;stroke-width:0.708661;stroke-linecap:round;stroke-linejoin:round;stroke:rgb(0%,0%,0%);stroke-opacity:1;stroke-miterlimit:10;" d="M 134.957031 173.347656 C 134.957031 176.488281 132.410156 179.035156 129.269531 179.035156 C 126.128906 179.035156 123.578125 176.488281 123.578125 173.347656 C 123.578125 170.203125 126.128906 167.65625 129.269531 167.65625 C 132.410156 167.65625 134.957031 170.203125 134.957031 173.347656 "/>
<path style="fill-rule:nonzero;fill:rgb(0%,0%,0%);fill-opacity:1;stroke-width:0.708661;stroke-linecap:round;stroke-linejoin:round;stroke:rgb(0%,0%,0%);stroke-opacity:1;stroke-miterlimit:10;" d="M 129.207031 122.667969 C 129.207031 125.8125 126.660156 128.359375 123.519531 128.359375 C 120.378906 128.359375 117.832031 125.8125 117.832031 122.667969 C 117.832031 119.527344 120.378906 116.980469 123.519531 116.980469 C 126.660156 116.980469 129.207031 119.527344 129.207031 122.667969 "/>
<path style="fill-rule:nonzero;fill:rgb(0%,0%,0%);fill-opacity:1;stroke-width:0.708661;stroke-linecap:round;stroke-linejoin:round;stroke:rgb(0%,0%,0%);stroke-opacity:1;stroke-miterlimit:10;" d="M 204.894531 50.25 C 204.894531 53.390625 202.347656 55.9375 199.207031 55.9375 C 196.0625 55.9375 193.515625 53.390625 193.515625 50.25 C 193.515625 47.109375 196.0625 44.5625 199.207031 44.5625 C 202.347656 44.5625 204.894531 47.109375 204.894531 50.25 "/>
<path style="fill-rule:nonzero;fill:rgb(0%,0%,0%);fill-opacity:1;stroke-width:0.708661;stroke-linecap:round;stroke-linejoin:round;stroke:rgb(0%,0%,0%);stroke-opacity:1;stroke-miterlimit:10;" d="M 126.175781 122.273438 C 126.175781 125.414062 123.628906 127.960938 120.488281 127.960938 C 117.347656 127.960938 114.800781 125.414062 114.800781 122.273438 C 114.800781 119.128906 117.347656 116.582031 120.488281 116.582031 C 123.628906 116.582031 126.175781 119.128906 126.175781 122.273438 "/>
<path style="fill-rule:nonzero;fill:rgb(0%,0%,0%);fill-opacity:1;stroke-width:0.708661;stroke-linecap:round;stroke-linejoin:round;stroke:rgb(0%,0%,0%);stroke-opacity:1;stroke-miterlimit:10;" d="M 155.054688 67.65625 C 155.054688 70.796875 152.507812 73.34375 149.363281 73.34375 C 146.222656 73.34375 143.675781 70.796875 143.675781 67.65625 C 143.675781 64.515625 146.222656 61.964844 149.363281 61.964844 C 152.507812 61.964844 155.054688 64.515625 155.054688 67.65625 "/>
<path style="fill-rule:nonzero;fill:rgb(0%,0%,0%);fill-opacity:1;stroke-width:0.708661;stroke-linecap:round;stroke-linejoin:round;stroke:rgb(0%,0%,0%);stroke-opacity:1;stroke-miterlimit:10;" d="M 141.660156 28.445312 C 141.660156 31.589844 139.113281 34.136719 135.96875 34.136719 C 132.828125 34.136719 130.28125 31.589844 130.28125 28.445312 C 130.28125 25.304688 132.828125 22.757812 135.96875 22.757812 C 139.113281 22.757812 141.660156 25.304688 141.660156 28.445312 "/>
<path style="fill-rule:nonzero;fill:rgb(0%,0%,0%);fill-opacity:1;stroke-width:0.708661;stroke-linecap:round;stroke-linejoin:round;stroke:rgb(0%,0%,0%);stroke-opacity:1;stroke-miterlimit:10;" d="M 81.863281 25.550781 C 81.863281 28.695312 79.316406 31.242188 76.175781 31.242188 C 73.035156 31.242188 70.488281 28.695312 70.488281 25.550781 C 70.488281 22.410156 73.035156 19.863281 76.175781 19.863281 C 79.316406 19.863281 81.863281 22.410156 81.863281 25.550781 "/>
<path style="fill-rule:nonzero;fill:rgb(0%,0%,0%);fill-opacity:1;stroke-width:0.708661;stroke-linecap:round;stroke-linejoin:round;stroke:rgb(0%,0%,0%);stroke-opacity:1;stroke-miterlimit:10;" d="M 85.046875 112.246094 C 85.046875 115.390625 82.5 117.9375 79.355469 117.9375 C 76.214844 117.9375 73.667969 115.390625 73.667969 112.246094 C 73.667969 109.105469 76.214844 106.558594 79.355469 106.558594 C 82.5 106.558594 85.046875 109.105469 85.046875 112.246094 "/>
<path style="fill-rule:nonzero;fill:rgb(0%,0%,0%);fill-opacity:1;stroke-width:0.708661;stroke-linecap:round;stroke-linejoin:round;stroke:rgb(0%,0%,0%);stroke-opacity:1;stroke-miterlimit:10;" d="M 162.722656 114.273438 C 162.722656 117.417969 160.175781 119.964844 157.035156 119.964844 C 153.890625 119.964844 151.34375 117.417969 151.34375 114.273438 C 151.34375 111.132812 153.890625 108.585938 157.035156 108.585938 C 160.175781 108.585938 162.722656 111.132812 162.722656 114.273438 "/>
<path style="fill-rule:nonzero;fill:rgb(0%,0%,0%);fill-opacity:1;stroke-width:0.708661;stroke-linecap:round;stroke-linejoin:round;stroke:rgb(0%,0%,0%);stroke-opacity:1;stroke-miterlimit:10;" d="M 117.097656 18.21875 C 117.097656 21.359375 114.550781 23.90625 111.410156 23.90625 C 108.265625 23.90625 105.71875 21.359375 105.71875 18.21875 C 105.71875 15.078125 108.265625 12.527344 111.410156 12.527344 C 114.550781 12.527344 117.097656 15.078125 117.097656 18.21875 "/>
<path style="fill-rule:nonzero;fill:rgb(0%,0%,0%);fill-opacity:1;stroke-width:0.708661;stroke-linecap:round;stroke-linejoin:round;stroke:rgb(0%,0%,0%);stroke-opacity:1;stroke-miterlimit:10;" d="M 71.355469 65.0625 C 71.355469 68.203125 68.808594 70.75 65.667969 70.75 C 62.523438 70.75 59.976562 68.203125 59.976562 65.0625 C 59.976562 61.921875 62.523438 59.375 65.667969 59.375 C 68.808594 59.375 71.355469 61.921875 71.355469 65.0625 "/>
<path style="fill-rule:nonzero;fill:rgb(0%,0%,0%);fill-opacity:1;stroke-width:0.708661;stroke-linecap:round;stroke-linejoin:round;stroke:rgb(0%,0%,0%);stroke-opacity:1;stroke-miterlimit:10;" d="M 165.589844 47.011719 C 165.589844 50.15625 163.042969 52.703125 159.902344 52.703125 C 156.757812 52.703125 154.210938 50.15625 154.210938 47.011719 C 154.210938 43.871094 156.757812 41.324219 159.902344 41.324219 C 163.042969 41.324219 165.589844 43.871094 165.589844 47.011719 "/>
<path style="fill-rule:nonzero;fill:rgb(0%,0%,0%);fill-opacity:1;stroke-width:0.708661;stroke-linecap:round;stroke-linejoin:round;stroke:rgb(0%,0%,0%);stroke-opacity:1;stroke-miterlimit:10;" d="M 59.792969 72.339844 C 59.792969 75.480469 57.246094 78.027344 54.101562 78.027344 C 50.960938 78.027344 48.414062 75.480469 48.414062 72.339844 C 48.414062 69.199219 50.960938 66.652344 54.101562 66.652344 C 57.246094 66.652344 59.792969 69.199219 59.792969 72.339844 "/>
<path style="fill-rule:nonzero;fill:rgb(0%,0%,0%);fill-opacity:1;stroke-width:0.708661;stroke-linecap:round;stroke-linejoin:round;stroke:rgb(0%,0%,0%);stroke-opacity:1;stroke-miterlimit:10;" d="M 185.019531 16.792969 C 185.019531 19.9375 182.472656 22.484375 179.332031 22.484375 C 176.1875 22.484375 173.640625 19.9375 173.640625 16.792969 C 173.640625 13.652344 176.1875 11.105469 179.332031 11.105469 C 182.472656 11.105469 185.019531 13.652344 185.019531 16.792969 "/>
<path style="fill-rule:nonzero;fill:rgb(78.431373%,0%,56.078431%);fill-opacity:1;stroke-width:0.708661;stroke-linecap:round;stroke-linejoin:round;stroke:rgb(78.431373%,0%,56.078431%);stroke-opacity:1;stroke-miterlimit:10;" d="M 143.820312 130.457031 C 143.820312 133.601562 141.273438 136.148438 138.128906 136.148438 C 134.988281 136.148438 132.441406 133.601562 132.441406 130.457031 C 132.441406 127.316406 134.988281 124.769531 138.128906 124.769531 C 141.273438 124.769531 143.820312 127.316406 143.820312 130.457031 "/>
<path style="fill-rule:nonzero;fill:rgb(0%,0%,0%);fill-opacity:1;stroke-width:0.708661;stroke-linecap:round;stroke-linejoin:round;stroke:rgb(0%,0%,0%);stroke-opacity:1;stroke-miterlimit:10;" d="M 134.339844 149.574219 C 134.339844 152.714844 131.792969 155.261719 128.652344 155.261719 C 125.511719 155.261719 122.964844 152.714844 122.964844 149.574219 C 122.964844 146.429688 125.511719 143.882812 128.652344 143.882812 C 131.792969 143.882812 134.339844 146.429688 134.339844 149.574219 "/>
<path style="fill-rule:nonzero;fill:rgb(0%,0%,0%);fill-opacity:1;stroke-width:0.708661;stroke-linecap:round;stroke-linejoin:round;stroke:rgb(0%,0%,0%);stroke-opacity:1;stroke-miterlimit:10;" d="M 96.6875 19.894531 C 96.6875 23.039062 94.140625 25.585938 91 25.585938 C 87.855469 25.585938 85.308594 23.039062 85.308594 19.894531 C 85.308594 16.753906 87.855469 14.207031 91 14.207031 C 94.140625 14.207031 96.6875 16.753906 96.6875 19.894531 "/>
<path style="fill-rule:nonzero;fill:rgb(78.431373%,0%,56.078431%);fill-opacity:1;stroke-width:0.708661;stroke-linecap:round;stroke-linejoin:round;stroke:rgb(78.431373%,0%,56.078431%);stroke-opacity:1;stroke-miterlimit:10;" d="M 117.191406 91.359375 C 117.191406 94.5 114.644531 97.046875 111.5 97.046875 C 108.359375 97.046875 105.8125 94.5 105.8125 91.359375 C 105.8125 88.21875 108.359375 85.671875 111.5 85.671875 C 114.644531 85.671875 117.191406 88.21875 117.191406 91.359375 "/>
<path style="fill-rule:nonzero;fill:rgb(0%,0%,0%);fill-opacity:1;stroke-width:0.708661;stroke-linecap:round;stroke-linejoin:round;stroke:rgb(0%,0%,0%);stroke-opacity:1;stroke-miterlimit:10;" d="M 124.992188 21.648438 C 124.992188 24.789062 122.441406 27.335938 119.300781 27.335938 C 116.160156 27.335938 113.613281 24.789062 113.613281 21.648438 C 113.613281 18.507812 116.160156 15.960938 119.300781 15.960938 C 122.441406 15.960938 124.992188 18.507812 124.992188 21.648438 "/>
<path style="fill-rule:nonzero;fill:rgb(0%,0%,0%);fill-opacity:1;stroke-width:0.708661;stroke-linecap:round;stroke-linejoin:round;stroke:rgb(0%,0%,0%);stroke-opacity:1;stroke-miterlimit:10;" d="M 72.300781 149.957031 C 72.300781 153.101562 69.753906 155.648438 66.613281 155.648438 C 63.472656 155.648438 60.921875 153.101562 60.921875 149.957031 C 60.921875 146.816406 63.472656 144.269531 66.613281 144.269531 C 69.753906 144.269531 72.300781 146.816406 72.300781 149.957031 "/>
<path style="fill-rule:nonzero;fill:rgb(0%,0%,0%);fill-opacity:1;stroke-width:0.708661;stroke-linecap:round;stroke-linejoin:round;stroke:rgb(0%,0%,0%);stroke-opacity:1;stroke-miterlimit:10;" d="M 129.804688 43.835938 C 129.804688 46.980469 127.253906 49.527344 124.113281 49.527344 C 120.972656 49.527344 118.425781 46.980469 118.425781 43.835938 C 118.425781 40.695312 120.972656 38.148438 124.113281 38.148438 C 127.253906 38.148438 129.804688 40.695312 129.804688 43.835938 "/>
<path style="fill-rule:nonzero;fill:rgb(78.431373%,0%,56.078431%);fill-opacity:1;stroke-width:0.708661;stroke-linecap:round;stroke-linejoin:round;stroke:rgb(78.431373%,0%,56.078431%);stroke-opacity:1;stroke-miterlimit:10;" d="M 54.894531 50.105469 C 54.894531 53.246094 52.347656 55.796875 49.203125 55.796875 C 46.0625 55.796875 43.515625 53.246094 43.515625 50.105469 C 43.515625 46.964844 46.0625 44.417969 49.203125 44.417969 C 52.347656 44.417969 54.894531 46.964844 54.894531 50.105469 "/>
<path style="fill:none;stroke-width:2.133957;stroke-linecap:butt;stroke-linejoin:round;stroke:rgb(0%,0%,0%);stroke-opacity:1;stroke-miterlimit:10;" d="M 34.824219 181.175781 L 34.824219 8.964844 "/>
<path style="fill:none;stroke-width:1.745965;stroke-linecap:butt;stroke-linejoin:round;stroke:rgb(0%,0%,0%);stroke-opacity:1;stroke-miterlimit:10;" d="M 34.824219 181.175781 L 207.035156 181.175781 "/>
</g>
</svg>
